<svg version="1.2" xmlns="http://www.w3.org/2000/svg" viewBox="0 0 5000 5000" width="64" height="64">
	<title>o9cs</title>
	<style>
		.s0 { fill: none;stroke: #ffffff;stroke-miterlimit:100;stroke-width: 175 } 
	</style>
	<g id="Folder 1">
		<path id="Shape 1" class="s0" d="m904.8 2899.3 1595.6-1595.6L4096 2899.3 2500.4 4494.9zm0 0 1595.6-1595.6L4096 2899.3 2500.4 4494.9zm0 0 1595.6-1595.6L4096 2899.3 2500.4 4494.9zm0 0 1595.6-1595.6L4096 2899.3 2500.4 4494.9zm0 0 1595.6-1595.6L4096 2899.3 2500.4 4494.9zm1404.61-1785.49 190.29 190.29L904.1 2899.7l-190.29-190.29zm0 0 190.29 190.29L904.1 2899.8l-190.29-190.39z"/>
		<path id="Shape 2" class="s0" d="M4286.39 2718.343 4096.1 2899.7 2500.5 1304.1l190.29-181.357z"/>
	</g>
</svg>