<svg xmlns="http://www.w3.org/2000/svg" width="64" height="64" style="shape-rendering:geometricPrecision;text-rendering:geometricPrecision;image-rendering:optimizeQuality;fill-rule:evenodd;clip-rule:evenodd" viewBox="0 0 64 64"><path fill="none" d="M0 0h64v64H0z" style="fill:#fff;fill-opacity:0;pointer-events:none"/><path fill="none" d="M0 0h128v128H0z" style="fill:#fff;fill-opacity:0;pointer-events:none" transform="scale(.5)"/><path fill="#fff" d="M45.847 29.57c0 2.753-1.363 5.172-2.634 6.824L35.637 45.2l-2.936-.115 7.674-8.783c-.782.492-1.68.738-2.667.738-1.912 0-3.476-.58-4.69-1.56.028.183.028.4.028.61 0 4.834-2.867 8.325-7.301 8.325-4.547 0-7.33-3.491-7.33-8.324 0-4.868 2.783-8.324 7.33-8.324 1.968 0 3.592.644 4.806 1.774.056-4.44 3.155-7.743 7.734-7.743 4.756 0 7.562 3.368 7.562 7.773m-15.524 6.52c0-3.55-1.475-6.122-4.574-6.122-3.127 0-4.607 2.572-4.607 6.122 0 3.579 1.476 6.12 4.607 6.12 3.1 0 4.574-2.541 4.574-6.12m12.89-6.52c0-3-1.735-5.57-4.923-5.57-3.155 0-5.012 2.57-5.012 5.663 0 3.03 1.769 5.507 4.951 5.507 3.128 0 4.984-2.66 4.984-5.6"/><path d="m904.8 2899.3 1595.6-1595.6L4096 2899.3 2500.4 4494.9zm0 0 1595.6-1595.6L4096 2899.3 2500.4 4494.9zm0 0 1595.6-1595.6L4096 2899.3 2500.4 4494.9zm0 0 1595.6-1595.6L4096 2899.3 2500.4 4494.9zm0 0 1595.6-1595.6L4096 2899.3 2500.4 4494.9zm1404.61-1785.49 190.29 190.29L904.1 2899.7l-190.29-190.29zm0 0 190.29 190.29L904.1 2899.8l-190.29-190.39z" class="s0" style="fill:none;stroke:#fff;stroke-miterlimit:100;stroke-width:175" transform="matrix(.01492 0 0 .01576 -4.95 -12.55)"/><path d="M4286.39 2718.343 4096.1 2899.7 2500.5 1304.1l190.29-181.357z" class="s0" style="fill:none;stroke:#fff;stroke-miterlimit:100;stroke-width:175" transform="matrix(.01492 0 0 .01576 -4.95 -12.55)"/></svg>